<svg width="50" height="50" viewBox="0 0 50 50" fill="none" xmlns="http://www.w3.org/2000/svg">
<path d="M25.3184 35.014C23.0479 32.7435 23.0479 29.0638 25.3184 26.7933C26.4528 25.6607 27.9412 25.0917 29.4279 25.0917C30.9146 25.0917 32.403 25.6589 33.5374 26.7933C33.784 27.0399 33.9901 27.3076 34.1839 27.5842C34.3776 27.3094 34.5837 27.0399 34.8303 26.7933C35.9647 25.6607 37.4531 25.0917 38.9398 25.0917C40.4265 25.0917 41.9149 25.6589 43.0493 26.7933C43.1251 26.869 43.1779 26.9589 43.2501 27.0381C45.6528 22.9533 45.1384 17.6266 41.6313 14.1196C39.551 12.041 36.8225 11 34.0958 11C31.369 11 28.6405 12.041 26.5602 14.1213C26.1093 14.5722 25.7306 15.0655 25.3765 15.571C25.0225 15.0655 24.6438 14.5722 24.1928 14.1213C22.1126 12.041 19.384 11 16.6573 11C13.9306 11 11.202 12.041 9.1218 14.1213C4.9594 18.2837 4.9594 25.0301 9.1218 29.1924C10.9308 31.0014 21.8765 40.1064 22.6357 40.8656C23.3931 41.623 24.3848 42 25.3765 42C26.3682 42 27.36 41.6213 28.1174 40.8656C28.2953 40.6877 29.0439 40.043 30.0902 39.1517C28.2055 37.5523 25.8997 35.5953 25.3184 35.014Z" fill="#0075FF"/>
<path d="M43.0495 26.7946C41.9151 25.6603 40.4267 25.0913 38.94 25.0913C37.4533 25.0913 35.9649 25.6585 34.8305 26.7929C34.5839 27.0395 34.3778 27.3072 34.1841 27.5838C33.9903 27.3072 33.7842 27.0395 33.5376 26.7929C32.4032 25.6603 30.9148 25.0913 29.4281 25.0913C27.9414 25.0913 26.453 25.6585 25.3186 26.7929C23.0481 29.0634 23.0481 32.7431 25.3186 35.0136C26.305 36.0001 32.2746 40.9656 32.6886 41.3796C33.1025 41.7935 33.6433 41.9978 34.1841 41.9978C34.7248 41.9978 35.2656 41.7917 35.6796 41.3796C36.0953 40.9656 42.0649 35.9983 43.0495 35.0136C45.32 32.7431 45.32 29.0652 43.0495 26.7946Z" fill="#123578"/>
</svg>
